<mxfile host="app.diagrams.net" modified="2020-03-13T15:16:54.107Z" agent="Mozilla/5.0 (Macintosh; Intel Mac OS X 10_14_6) AppleWebKit/605.1.15 (KHTML, like Gecko) Version/12.1.2 Safari/605.1.15" etag="5yCiYH2n3rAEn_9SQJkl" version="12.8.4" type="github" pages="3">
  <diagram id="ep4GXjisRfHK_vgKuoRm" name="Consumer - Register or login to account">
    <mxGraphModel dx="1186" dy="764" grid="1" gridSize="10" guides="1" tooltips="1" connect="1" arrows="1" fold="1" page="1" pageScale="1" pageWidth="827" pageHeight="1169" math="0" shadow="0">
      <root>
        <mxCell id="0" />
        <mxCell id="1" parent="0" />
        <mxCell id="VAb5-juboVaMqVpaKieZ-1" value="Online Ticketing System (OTS)" style="html=1;whiteSpace=wrap;container=1;fontSize=13;fontColor=#000000;fontStyle=3;spacing=0;verticalAlign=top;strokeColor=#333333;strokeOpacity=100;fillOpacity=0;rounded=1;absoluteArcSize=1;arcSize=6;fillColor=#000000;strokeWidth=0.6;" parent="1" vertex="1">
          <mxGeometry x="242" y="150" width="332" height="420" as="geometry">
            <mxRectangle x="230" y="165" width="220" height="20" as="alternateBounds" />
          </mxGeometry>
        </mxCell>
        <mxCell id="VAb5-juboVaMqVpaKieZ-2" value="Consumer" style="html=1;whiteSpace=wrap;shape=umlActor;labelPosition=center;verticalLabelPosition=bottom;verticalAlign=top;whiteSpace=nowrap;fontSize=11;fontColor=#333333;fontStyle=2;spacing=0;strokeColor=#333333;strokeOpacity=100;rounded=1;absoluteArcSize=1;arcSize=6;fillColor=#ffffff;strokeWidth=0.6;" parent="1" vertex="1">
          <mxGeometry x="132" y="282" width="48" height="108" as="geometry" />
        </mxCell>
        <mxCell id="VAb5-juboVaMqVpaKieZ-3" value="Sign in &lt;br&gt;to account" style="html=1;whiteSpace=wrap;shape=ellipse;fontSize=11;fontColor=#ffffff;fontStyle=2;align=center;spacing=0;verticalAlign=middle;strokeColor=#ffffff;strokeOpacity=100;fillOpacity=100;rounded=1;absoluteArcSize=1;arcSize=6;fillColor=#3278cc;strokeWidth=0.6;" parent="1" vertex="1">
          <mxGeometry x="278" y="220" width="96" height="72" as="geometry" />
        </mxCell>
        <mxCell id="VAb5-juboVaMqVpaKieZ-4" value="Create new &lt;br&gt;account" style="html=1;whiteSpace=wrap;shape=ellipse;fontSize=11;fontColor=#ffffff;fontStyle=2;align=center;spacing=0;verticalAlign=middle;strokeColor=#ffffff;strokeOpacity=100;fillOpacity=100;rounded=1;absoluteArcSize=1;arcSize=6;fillColor=#3278cc;strokeWidth=0.6;" parent="1" vertex="1">
          <mxGeometry x="268" y="348" width="96" height="72" as="geometry" />
        </mxCell>
        <mxCell id="VAb5-juboVaMqVpaKieZ-5" value="Provide address" style="html=1;whiteSpace=wrap;shape=ellipse;fontSize=11;fontColor=#ffffff;fontStyle=2;align=center;spacing=0;verticalAlign=middle;strokeColor=#ffffff;strokeOpacity=100;fillOpacity=100;rounded=1;absoluteArcSize=1;arcSize=6;fillColor=#3278cc;strokeWidth=0.6;" parent="1" vertex="1">
          <mxGeometry x="336" y="480" width="96" height="72" as="geometry" />
        </mxCell>
        <mxCell id="VAb5-juboVaMqVpaKieZ-6" value="Provide valid username" style="html=1;whiteSpace=wrap;shape=ellipse;fontSize=11;fontColor=#ffffff;align=center;spacing=0;verticalAlign=middle;strokeColor=#ffffff;strokeOpacity=100;fillOpacity=100;rounded=1;absoluteArcSize=1;arcSize=6;fillColor=#3278cc;strokeWidth=0.6;" parent="1" vertex="1">
          <mxGeometry x="456" y="300" width="96" height="72" as="geometry" />
        </mxCell>
        <mxCell id="VAb5-juboVaMqVpaKieZ-7" value="" style="html=1;jettySize=18;fontSize=11;strokeColor=#333333;strokeOpacity=100;strokeWidth=0.6;rounded=1;arcSize=10;startArrow=none;;endArrow=none;;entryX=-0.0031250268122986922;entryY=0.5;entryPerimeter=1;" parent="1" target="VAb5-juboVaMqVpaKieZ-3" edge="1">
          <mxGeometry width="100" height="100" relative="1" as="geometry">
            <mxPoint x="192" y="324" as="sourcePoint" />
          </mxGeometry>
        </mxCell>
        <mxCell id="VAb5-juboVaMqVpaKieZ-8" value="" style="html=1;jettySize=18;fontSize=11;strokeColor=#333333;strokeOpacity=100;strokeWidth=0.6;rounded=1;arcSize=10;startArrow=none;;endArrow=none;;entryX=-0.0031250268122986922;entryY=0.5;entryPerimeter=1;" parent="1" target="VAb5-juboVaMqVpaKieZ-4" edge="1">
          <mxGeometry width="100" height="100" relative="1" as="geometry">
            <mxPoint x="192" y="336" as="sourcePoint" />
          </mxGeometry>
        </mxCell>
        <mxCell id="VAb5-juboVaMqVpaKieZ-9" value="" style="html=1;jettySize=18;fontSize=11;strokeColor=#333333;strokeOpacity=100;dashed=1;strokeWidth=0.6;rounded=1;arcSize=10;startArrow=open;;endArrow=none;;exitX=0.084;exitY=0.765;exitPerimeter=0;entryX=1.0031250268122986;entryY=0.5;entryPerimeter=1;exitDx=0;exitDy=0;" parent="1" source="VAb5-juboVaMqVpaKieZ-6" target="VAb5-juboVaMqVpaKieZ-4" edge="1">
          <mxGeometry width="100" height="100" relative="1" as="geometry" />
        </mxCell>
        <mxCell id="VAb5-juboVaMqVpaKieZ-10" value="&amp;lt;&amp;lt;include&amp;gt;&amp;gt;" style="text;html=1;resizable=0;labelBackgroundColor=#ffffff;align=center;verticalAlign=middle;fontSize=10;" parent="VAb5-juboVaMqVpaKieZ-9" vertex="1">
          <mxGeometry x="0.357092703546535" relative="1" as="geometry" />
        </mxCell>
        <mxCell id="VAb5-juboVaMqVpaKieZ-11" value="Consumer - Register or login to account" style="html=1;whiteSpace=wrap;;fontSize=16;fontColor=#a9afb8;fontStyle=1;align=center;spacingLeft=5.628;spacingRight=9.38;spacingTop=2.68;spacing=4;strokeOpacity=0;fillOpacity=0;rounded=1;absoluteArcSize=1;arcSize=9.6;fillColor=#ffffff;strokeWidth=1.2;" parent="1" vertex="1">
          <mxGeometry x="152" y="108" width="512" height="25" as="geometry" />
        </mxCell>
        <mxCell id="VAb5-juboVaMqVpaKieZ-12" value="" style="html=1;whiteSpace=wrap;;fontSize=11;align=center;spacingLeft=5.628;spacingRight=9.38;spacingTop=2.68;spacing=4;strokeOpacity=0;fillOpacity=0;rounded=1;absoluteArcSize=1;arcSize=9.6;fillColor=#ffffff;strokeWidth=1.2;" parent="1" vertex="1">
          <mxGeometry x="152" y="133" width="512" height="11" as="geometry" />
        </mxCell>
        <mxCell id="VAb5-juboVaMqVpaKieZ-13" value="Provide valid password" style="html=1;whiteSpace=wrap;shape=ellipse;fontSize=11;fontColor=#ffffff;spacing=0;strokeColor=#ffffff;strokeOpacity=100;fillOpacity=100;rounded=1;absoluteArcSize=1;arcSize=9.6;fillColor=#3278cc;strokeWidth=0.6;" parent="1" vertex="1">
          <mxGeometry x="456" y="420" width="96" height="72" as="geometry" />
        </mxCell>
        <mxCell id="VAb5-juboVaMqVpaKieZ-14" value="" style="html=1;jettySize=18;fontSize=11;strokeColor=#333333;strokeOpacity=100;dashed=1;strokeWidth=0.6;rounded=1;arcSize=10;startArrow=none;;endArrow=open;;exitX=0.922;exitY=0.817;exitPerimeter=0;entryX=0.041;entryY=0.334;entryPerimeter=0;entryDx=0;entryDy=0;exitDx=0;exitDy=0;" parent="1" source="VAb5-juboVaMqVpaKieZ-4" target="VAb5-juboVaMqVpaKieZ-13" edge="1">
          <mxGeometry width="100" height="100" relative="1" as="geometry" />
        </mxCell>
        <mxCell id="VAb5-juboVaMqVpaKieZ-15" value="&amp;lt;&amp;lt;include&amp;gt;&amp;gt;" style="text;html=1;resizable=0;labelBackgroundColor=#ffffff;align=center;verticalAlign=middle;fontSize=10;" parent="VAb5-juboVaMqVpaKieZ-14" vertex="1">
          <mxGeometry relative="1" as="geometry" />
        </mxCell>
        <mxCell id="VAb5-juboVaMqVpaKieZ-16" value="" style="html=1;jettySize=18;fontSize=11;strokeColor=#333333;strokeOpacity=100;dashed=1;strokeWidth=0.6;rounded=1;arcSize=10;startArrow=none;;endArrow=open;;entryX=0.278;entryY=0.018;entryPerimeter=0;entryDx=0;entryDy=0;" parent="1" target="VAb5-juboVaMqVpaKieZ-5" edge="1">
          <mxGeometry width="100" height="100" relative="1" as="geometry">
            <mxPoint x="330" y="420" as="sourcePoint" />
          </mxGeometry>
        </mxCell>
        <mxCell id="VAb5-juboVaMqVpaKieZ-17" value="&amp;lt;&amp;lt;include&amp;gt;&amp;gt;" style="text;html=1;resizable=0;labelBackgroundColor=#ffffff;align=center;verticalAlign=middle;fontSize=10;" parent="VAb5-juboVaMqVpaKieZ-16" vertex="1">
          <mxGeometry relative="1" as="geometry" />
        </mxCell>
        <mxCell id="VAb5-juboVaMqVpaKieZ-18" value="" style="html=1;jettySize=18;fontSize=11;strokeColor=#333333;strokeOpacity=100;dashed=1;strokeWidth=0.6;rounded=1;arcSize=10;startArrow=open;;endArrow=none;;exitX=0.12;exitY=0.181;exitPerimeter=0;entryX=0.99;entryY=0.592;entryPerimeter=0;exitDx=0;exitDy=0;entryDx=0;entryDy=0;" parent="1" source="VAb5-juboVaMqVpaKieZ-6" target="VAb5-juboVaMqVpaKieZ-3" edge="1">
          <mxGeometry width="100" height="100" relative="1" as="geometry" />
        </mxCell>
        <mxCell id="VAb5-juboVaMqVpaKieZ-19" value="&amp;lt;&amp;lt;include&amp;gt;&amp;gt;" style="text;html=1;resizable=0;labelBackgroundColor=#ffffff;align=center;verticalAlign=middle;fontSize=10;" parent="VAb5-juboVaMqVpaKieZ-18" vertex="1">
          <mxGeometry x="0.12467801691379687" relative="1" as="geometry" />
        </mxCell>
        <mxCell id="VAb5-juboVaMqVpaKieZ-20" value="" style="html=1;jettySize=18;fontSize=11;strokeColor=#333333;strokeOpacity=100;dashed=1;strokeWidth=0.6;rounded=1;arcSize=10;startArrow=open;;endArrow=none;;exitX=0.249;exitY=0.056;exitPerimeter=0;entryX=0.767;entryY=0.909;entryPerimeter=0;exitDx=0;exitDy=0;entryDx=0;entryDy=0;" parent="1" source="VAb5-juboVaMqVpaKieZ-13" target="VAb5-juboVaMqVpaKieZ-3" edge="1">
          <mxGeometry width="100" height="100" relative="1" as="geometry" />
        </mxCell>
        <mxCell id="VAb5-juboVaMqVpaKieZ-21" value="&amp;lt;&amp;lt;include&amp;gt;&amp;gt;" style="text;html=1;resizable=0;labelBackgroundColor=#ffffff;align=center;verticalAlign=middle;fontSize=10;" parent="VAb5-juboVaMqVpaKieZ-20" vertex="1">
          <mxGeometry x="0.5263768801095234" relative="1" as="geometry" />
        </mxCell>
        <mxCell id="VAb5-juboVaMqVpaKieZ-22" value="Verify address" style="html=1;whiteSpace=wrap;shape=ellipse;fontSize=11;fontColor=#ffffff;fontStyle=2;align=center;spacing=0;verticalAlign=middle;strokeColor=#ffffff;strokeOpacity=100;fillOpacity=100;rounded=1;absoluteArcSize=1;arcSize=6;fillColor=#3278cc;strokeWidth=0.6;" parent="1" vertex="1">
          <mxGeometry x="456" y="186" width="96" height="72" as="geometry" />
        </mxCell>
        <mxCell id="VAb5-juboVaMqVpaKieZ-23" value="" style="html=1;jettySize=18;fontSize=11;strokeColor=#333333;strokeOpacity=100;dashed=1;strokeWidth=0.6;rounded=1;arcSize=10;startArrow=none;;endArrow=open;;entryX=0.889;entryY=0.171;entryPerimeter=0;entryDx=0;entryDy=0;exitX=0.019;exitY=0.404;exitDx=0;exitDy=0;exitPerimeter=0;" parent="1" source="VAb5-juboVaMqVpaKieZ-22" target="VAb5-juboVaMqVpaKieZ-3" edge="1">
          <mxGeometry width="100" height="100" relative="1" as="geometry">
            <mxPoint x="456" y="212" as="sourcePoint" />
          </mxGeometry>
        </mxCell>
        <mxCell id="VAb5-juboVaMqVpaKieZ-24" value="&amp;lt;&amp;lt;extend&amp;gt;&amp;gt;" style="text;html=1;resizable=0;labelBackgroundColor=#ffffff;align=center;verticalAlign=middle;fontSize=10;" parent="VAb5-juboVaMqVpaKieZ-23" vertex="1">
          <mxGeometry x="-0.12467801691379687" relative="1" as="geometry" />
        </mxCell>
      </root>
    </mxGraphModel>
  </diagram>
  <diagram id="UYZbQLfupx8sBC_aytdF" name="Consumer - View list of shows">
    <mxGraphModel dx="818" dy="527" grid="1" gridSize="10" guides="1" tooltips="1" connect="1" arrows="1" fold="1" page="1" pageScale="1" pageWidth="827" pageHeight="1169" math="0" shadow="0">
      <root>
        <mxCell id="f_f85VDph8Gd2Aj1T1y7-0" />
        <mxCell id="f_f85VDph8Gd2Aj1T1y7-1" parent="f_f85VDph8Gd2Aj1T1y7-0" />
        <mxCell id="jLDb9U_fpvNs3R30799g-0" value="Online Ticketing System (OTS)" style="html=1;whiteSpace=wrap;container=1;fontSize=13;fontColor=#000000;fontStyle=3;spacing=0;verticalAlign=top;strokeColor=#333333;strokeOpacity=100;fillOpacity=0;rounded=1;absoluteArcSize=1;arcSize=6;fillColor=#000000;strokeWidth=0.6;" parent="f_f85VDph8Gd2Aj1T1y7-1" vertex="1">
          <mxGeometry x="242" y="156" width="332" height="464" as="geometry" />
        </mxCell>
        <mxCell id="vm0TYCJEo4aIBjOrjjAO-0" value="Select show" style="html=1;whiteSpace=wrap;shape=ellipse;fontSize=11;fontColor=#ffffff;fontStyle=2;align=center;spacing=0;verticalAlign=middle;strokeColor=#ffffff;strokeOpacity=100;fillOpacity=100;rounded=1;absoluteArcSize=1;arcSize=6;fillColor=#3278cc;strokeWidth=0.6;" vertex="1" parent="jLDb9U_fpvNs3R30799g-0">
          <mxGeometry x="34" y="264" width="96" height="72" as="geometry" />
        </mxCell>
        <mxCell id="jLDb9U_fpvNs3R30799g-1" value="Consumer" style="html=1;whiteSpace=wrap;shape=umlActor;labelPosition=center;verticalLabelPosition=bottom;verticalAlign=top;whiteSpace=nowrap;fontSize=11;fontColor=#333333;fontStyle=2;spacing=0;strokeColor=#333333;strokeOpacity=100;rounded=1;absoluteArcSize=1;arcSize=6;fillColor=#ffffff;strokeWidth=0.6;" parent="f_f85VDph8Gd2Aj1T1y7-1" vertex="1">
          <mxGeometry x="132" y="282" width="48" height="108" as="geometry" />
        </mxCell>
        <mxCell id="jLDb9U_fpvNs3R30799g-2" value="View list of shows" style="html=1;whiteSpace=wrap;shape=ellipse;fontSize=11;fontColor=#ffffff;fontStyle=2;align=center;spacing=0;verticalAlign=middle;strokeColor=#ffffff;strokeOpacity=100;fillOpacity=100;rounded=1;absoluteArcSize=1;arcSize=6;fillColor=#3278cc;strokeWidth=0.6;" parent="f_f85VDph8Gd2Aj1T1y7-1" vertex="1">
          <mxGeometry x="276" y="288" width="96" height="72" as="geometry" />
        </mxCell>
        <mxCell id="jLDb9U_fpvNs3R30799g-3" value="Filter shows by&lt;br&gt;date range" style="html=1;whiteSpace=wrap;shape=ellipse;fontSize=11;fontColor=#ffffff;align=center;spacing=0;verticalAlign=middle;strokeColor=#ffffff;strokeOpacity=100;fillOpacity=100;rounded=1;absoluteArcSize=1;arcSize=6;fillColor=#3278cc;strokeWidth=0.6;" parent="f_f85VDph8Gd2Aj1T1y7-1" vertex="1">
          <mxGeometry x="456" y="220" width="96" height="72" as="geometry" />
        </mxCell>
        <mxCell id="jLDb9U_fpvNs3R30799g-4" value="" style="html=1;jettySize=18;fontSize=11;strokeColor=#333333;strokeOpacity=100;strokeWidth=0.6;rounded=1;arcSize=10;startArrow=none;;endArrow=none;;entryX=-0.0031250268122986922;entryY=0.5;entryPerimeter=1;" parent="f_f85VDph8Gd2Aj1T1y7-1" target="jLDb9U_fpvNs3R30799g-2" edge="1">
          <mxGeometry width="100" height="100" relative="1" as="geometry">
            <mxPoint x="192" y="324" as="sourcePoint" />
          </mxGeometry>
        </mxCell>
        <mxCell id="jLDb9U_fpvNs3R30799g-5" value="Consumer - View list of shows" style="html=1;whiteSpace=wrap;;fontSize=16;fontColor=#a9afb8;fontStyle=1;align=center;spacingLeft=5.628;spacingRight=9.38;spacingTop=2.68;spacing=4;strokeOpacity=0;fillOpacity=0;rounded=1;absoluteArcSize=1;arcSize=9.6;fillColor=#ffffff;strokeWidth=1.2;" parent="f_f85VDph8Gd2Aj1T1y7-1" vertex="1">
          <mxGeometry x="152" y="108" width="512" height="25" as="geometry" />
        </mxCell>
        <mxCell id="jLDb9U_fpvNs3R30799g-6" value="" style="html=1;whiteSpace=wrap;;fontSize=11;align=center;spacingLeft=5.628;spacingRight=9.38;spacingTop=2.68;spacing=4;strokeOpacity=0;fillOpacity=0;rounded=1;absoluteArcSize=1;arcSize=9.6;fillColor=#ffffff;strokeWidth=1.2;" parent="f_f85VDph8Gd2Aj1T1y7-1" vertex="1">
          <mxGeometry x="152" y="133" width="512" height="11" as="geometry" />
        </mxCell>
        <mxCell id="jLDb9U_fpvNs3R30799g-7" value="Sign in &lt;br&gt;to account" style="html=1;whiteSpace=wrap;shape=ellipse;fontSize=11;fontColor=#ffffff;fontStyle=2;align=center;spacing=0;strokeColor=#ffffff;strokeOpacity=100;fillOpacity=100;rounded=1;absoluteArcSize=1;arcSize=9.6;fillColor=#3278cc;strokeWidth=0.6;" parent="f_f85VDph8Gd2Aj1T1y7-1" vertex="1">
          <mxGeometry x="456" y="348" width="96" height="72" as="geometry" />
        </mxCell>
        <mxCell id="jLDb9U_fpvNs3R30799g-8" value="" style="html=1;jettySize=18;fontSize=11;strokeColor=#333333;strokeOpacity=100;dashed=1;strokeWidth=0.6;rounded=1;arcSize=10;startArrow=none;;endArrow=open;;exitX=-0.0031250268122986922;exitY=0.5;exitPerimeter=1;" parent="f_f85VDph8Gd2Aj1T1y7-1" source="jLDb9U_fpvNs3R30799g-3" edge="1">
          <mxGeometry width="100" height="100" relative="1" as="geometry">
            <mxPoint x="370" y="304" as="targetPoint" />
          </mxGeometry>
        </mxCell>
        <mxCell id="jLDb9U_fpvNs3R30799g-9" value="&amp;lt;&amp;lt;extend&amp;gt;&amp;gt;" style="text;html=1;resizable=0;labelBackgroundColor=#ffffff;align=center;verticalAlign=middle;fontSize=10;" parent="jLDb9U_fpvNs3R30799g-8" vertex="1">
          <mxGeometry x="-0.12467801691379687" relative="1" as="geometry" />
        </mxCell>
        <mxCell id="jLDb9U_fpvNs3R30799g-10" value="" style="html=1;jettySize=18;fontSize=11;strokeColor=#333333;strokeOpacity=100;dashed=1;strokeWidth=0.6;rounded=1;arcSize=10;startArrow=open;;endArrow=none;;entryX=0.9598951648599808;entryY=0.7043978510488803;entryPerimeter=1;exitX=0.01;exitY=0.361;exitDx=0;exitDy=0;exitPerimeter=0;" parent="f_f85VDph8Gd2Aj1T1y7-1" source="jLDb9U_fpvNs3R30799g-7" target="jLDb9U_fpvNs3R30799g-2" edge="1">
          <mxGeometry width="100" height="100" relative="1" as="geometry">
            <mxPoint x="456" y="380" as="sourcePoint" />
          </mxGeometry>
        </mxCell>
        <mxCell id="jLDb9U_fpvNs3R30799g-11" value="&amp;lt;&amp;lt;include&amp;gt;&amp;gt;" style="text;html=1;resizable=0;labelBackgroundColor=#ffffff;align=center;verticalAlign=middle;fontSize=10;" parent="jLDb9U_fpvNs3R30799g-10" vertex="1">
          <mxGeometry x="0.20269460148369856" relative="1" as="geometry" />
        </mxCell>
        <mxCell id="vm0TYCJEo4aIBjOrjjAO-1" value="" style="html=1;jettySize=18;fontSize=11;strokeColor=#333333;strokeOpacity=100;strokeWidth=0.6;rounded=1;arcSize=10;startArrow=none;;endArrow=none;;entryX=0;entryY=0.5;entryDx=0;entryDy=0;" edge="1" parent="f_f85VDph8Gd2Aj1T1y7-1" target="vm0TYCJEo4aIBjOrjjAO-0">
          <mxGeometry width="100" height="100" relative="1" as="geometry">
            <mxPoint x="190" y="340" as="sourcePoint" />
            <mxPoint x="286" y="334.0000000000001" as="targetPoint" />
          </mxGeometry>
        </mxCell>
        <mxCell id="vm0TYCJEo4aIBjOrjjAO-2" value="" style="html=1;jettySize=18;fontSize=11;strokeColor=#333333;strokeOpacity=100;dashed=1;strokeWidth=0.6;rounded=1;arcSize=10;startArrow=open;;endArrow=none;;entryX=0.5;entryY=0;exitX=0.5;exitY=1;exitDx=0;exitDy=0;entryDx=0;entryDy=0;" edge="1" parent="f_f85VDph8Gd2Aj1T1y7-1" source="jLDb9U_fpvNs3R30799g-2" target="vm0TYCJEo4aIBjOrjjAO-0">
          <mxGeometry width="100" height="100" relative="1" as="geometry">
            <mxPoint x="414.96000000000004" y="443.9920000000001" as="sourcePoint" />
            <mxPoint x="330" y="409.9999999999999" as="targetPoint" />
          </mxGeometry>
        </mxCell>
        <mxCell id="vm0TYCJEo4aIBjOrjjAO-3" value="&amp;lt;&amp;lt;include&amp;gt;&amp;gt;" style="text;html=1;resizable=0;labelBackgroundColor=#ffffff;align=center;verticalAlign=middle;fontSize=10;" vertex="1" parent="vm0TYCJEo4aIBjOrjjAO-2">
          <mxGeometry x="0.20269460148369856" relative="1" as="geometry" />
        </mxCell>
      </root>
    </mxGraphModel>
  </diagram>
  <diagram id="4i8ymfrEpb3wUC466EEV" name="Page-3">
    <mxGraphModel dx="678" dy="437" grid="1" gridSize="10" guides="1" tooltips="1" connect="1" arrows="1" fold="1" page="1" pageScale="1" pageWidth="827" pageHeight="1169" math="0" shadow="0">
      <root>
        <mxCell id="4GhM-R23etMm0T79-Dqf-0" />
        <mxCell id="4GhM-R23etMm0T79-Dqf-1" parent="4GhM-R23etMm0T79-Dqf-0" />
        <mxCell id="iEtAHZI9JKAfYrx81GZf-0" value="Online Ticketing System (OTS)" style="html=1;whiteSpace=wrap;container=1;fontSize=13;fontColor=#000000;fontStyle=3;spacing=0;verticalAlign=top;strokeColor=#333333;strokeOpacity=100;fillOpacity=0;rounded=1;absoluteArcSize=1;arcSize=6;fillColor=#000000;strokeWidth=0.6;" vertex="1" parent="4GhM-R23etMm0T79-Dqf-1">
          <mxGeometry x="242" y="156" width="332" height="300" as="geometry" />
        </mxCell>
        <mxCell id="iEtAHZI9JKAfYrx81GZf-1" value="Consumer" style="html=1;whiteSpace=wrap;shape=umlActor;labelPosition=center;verticalLabelPosition=bottom;verticalAlign=top;whiteSpace=nowrap;fontSize=11;fontColor=#333333;fontStyle=2;spacing=0;strokeColor=#333333;strokeOpacity=100;rounded=1;absoluteArcSize=1;arcSize=6;fillColor=#ffffff;strokeWidth=0.6;" vertex="1" parent="4GhM-R23etMm0T79-Dqf-1">
          <mxGeometry x="132" y="282" width="48" height="108" as="geometry" />
        </mxCell>
        <mxCell id="iEtAHZI9JKAfYrx81GZf-2" value="View list of shows" style="html=1;whiteSpace=wrap;shape=ellipse;fontSize=11;fontColor=#ffffff;fontStyle=2;align=center;spacing=0;verticalAlign=middle;strokeColor=#ffffff;strokeOpacity=100;fillOpacity=100;rounded=1;absoluteArcSize=1;arcSize=6;fillColor=#3278cc;strokeWidth=0.6;" vertex="1" parent="4GhM-R23etMm0T79-Dqf-1">
          <mxGeometry x="276" y="288" width="96" height="72" as="geometry" />
        </mxCell>
        <mxCell id="iEtAHZI9JKAfYrx81GZf-3" value="Filter shows by&lt;br&gt;date range" style="html=1;whiteSpace=wrap;shape=ellipse;fontSize=11;fontColor=#ffffff;align=center;spacing=0;verticalAlign=middle;strokeColor=#ffffff;strokeOpacity=100;fillOpacity=100;rounded=1;absoluteArcSize=1;arcSize=6;fillColor=#3278cc;strokeWidth=0.6;" vertex="1" parent="4GhM-R23etMm0T79-Dqf-1">
          <mxGeometry x="456" y="220" width="96" height="72" as="geometry" />
        </mxCell>
        <mxCell id="iEtAHZI9JKAfYrx81GZf-4" value="" style="html=1;jettySize=18;fontSize=11;strokeColor=#333333;strokeOpacity=100;strokeWidth=0.6;rounded=1;arcSize=10;startArrow=none;;endArrow=none;;entryX=-0.0031250268122986922;entryY=0.5;entryPerimeter=1;" edge="1" parent="4GhM-R23etMm0T79-Dqf-1" target="iEtAHZI9JKAfYrx81GZf-2">
          <mxGeometry width="100" height="100" relative="1" as="geometry">
            <mxPoint x="192" y="324" as="sourcePoint" />
          </mxGeometry>
        </mxCell>
        <mxCell id="iEtAHZI9JKAfYrx81GZf-5" value="Consumer - Select and deselect tickets" style="html=1;whiteSpace=wrap;;fontSize=16;fontColor=#a9afb8;fontStyle=1;align=center;spacingLeft=5.628;spacingRight=9.38;spacingTop=2.68;spacing=4;strokeOpacity=0;fillOpacity=0;rounded=1;absoluteArcSize=1;arcSize=9.6;fillColor=#ffffff;strokeWidth=1.2;" vertex="1" parent="4GhM-R23etMm0T79-Dqf-1">
          <mxGeometry x="152" y="108" width="512" height="25" as="geometry" />
        </mxCell>
        <mxCell id="iEtAHZI9JKAfYrx81GZf-6" value="" style="html=1;whiteSpace=wrap;;fontSize=11;align=center;spacingLeft=5.628;spacingRight=9.38;spacingTop=2.68;spacing=4;strokeOpacity=0;fillOpacity=0;rounded=1;absoluteArcSize=1;arcSize=9.6;fillColor=#ffffff;strokeWidth=1.2;" vertex="1" parent="4GhM-R23etMm0T79-Dqf-1">
          <mxGeometry x="152" y="133" width="512" height="11" as="geometry" />
        </mxCell>
        <mxCell id="iEtAHZI9JKAfYrx81GZf-7" value="Sign in &lt;br&gt;to account" style="html=1;whiteSpace=wrap;shape=ellipse;fontSize=11;fontColor=#ffffff;fontStyle=2;align=center;spacing=0;strokeColor=#ffffff;strokeOpacity=100;fillOpacity=100;rounded=1;absoluteArcSize=1;arcSize=9.6;fillColor=#3278cc;strokeWidth=0.6;" vertex="1" parent="4GhM-R23etMm0T79-Dqf-1">
          <mxGeometry x="456" y="348" width="96" height="72" as="geometry" />
        </mxCell>
        <mxCell id="iEtAHZI9JKAfYrx81GZf-8" value="" style="html=1;jettySize=18;fontSize=11;strokeColor=#333333;strokeOpacity=100;dashed=1;strokeWidth=0.6;rounded=1;arcSize=10;startArrow=none;;endArrow=open;;exitX=-0.0031250268122986922;exitY=0.5;exitPerimeter=1;" edge="1" parent="4GhM-R23etMm0T79-Dqf-1" source="iEtAHZI9JKAfYrx81GZf-3">
          <mxGeometry width="100" height="100" relative="1" as="geometry">
            <mxPoint x="370" y="304" as="targetPoint" />
          </mxGeometry>
        </mxCell>
        <mxCell id="iEtAHZI9JKAfYrx81GZf-9" value="&amp;lt;&amp;lt;extend&amp;gt;&amp;gt;" style="text;html=1;resizable=0;labelBackgroundColor=#ffffff;align=center;verticalAlign=middle;fontSize=10;" vertex="1" parent="iEtAHZI9JKAfYrx81GZf-8">
          <mxGeometry x="-0.12467801691379687" relative="1" as="geometry" />
        </mxCell>
        <mxCell id="iEtAHZI9JKAfYrx81GZf-10" value="" style="html=1;jettySize=18;fontSize=11;strokeColor=#333333;strokeOpacity=100;dashed=1;strokeWidth=0.6;rounded=1;arcSize=10;startArrow=open;;endArrow=none;;entryX=0.9598951648599808;entryY=0.7043978510488803;entryPerimeter=1;exitX=0.01;exitY=0.361;exitDx=0;exitDy=0;exitPerimeter=0;" edge="1" parent="4GhM-R23etMm0T79-Dqf-1" source="iEtAHZI9JKAfYrx81GZf-7" target="iEtAHZI9JKAfYrx81GZf-2">
          <mxGeometry width="100" height="100" relative="1" as="geometry">
            <mxPoint x="456" y="380" as="sourcePoint" />
          </mxGeometry>
        </mxCell>
        <mxCell id="iEtAHZI9JKAfYrx81GZf-11" value="&amp;lt;&amp;lt;include&amp;gt;&amp;gt;" style="text;html=1;resizable=0;labelBackgroundColor=#ffffff;align=center;verticalAlign=middle;fontSize=10;" vertex="1" parent="iEtAHZI9JKAfYrx81GZf-10">
          <mxGeometry x="0.20269460148369856" relative="1" as="geometry" />
        </mxCell>
      </root>
    </mxGraphModel>
  </diagram>
</mxfile>
